<?xml version="1.0" standalone="no"?>
<!DOCTYPE svg PUBLIC "-//W3C//DTD SVG 20010904//EN" "http://www.w3.org/TR/2001/REC-SVG-20010904/DTD/svg10.dtd">
<svg version="1.0" xmlns="http://www.w3.org/2000/svg"
    width="205.000000pt" height="80.000000pt" viewBox="0 0 205.000000 80.000000"
    preserveAspectRatio="xMidYMid meet">

    <g transform="translate(0.000000,80.000000) scale(0.100000,-0.100000)"
        fill="#0099AB" stroke="none">
        <path
            d="M564 786 c-121 -39 -189 -164 -150 -276 9 -25 16 -48 16 -52 0 -5
-56 -8 -125 -8 -138 0 -178 -10 -228 -58 -116 -110 -82 -305 65 -366 29 -12
76 -16 203 -16 l165 0 0 49 0 50 -166 3 -166 3 -34 37 c-39 43 -45 91 -17 139
32 54 58 59 305 59 128 0 239 5 262 11 57 16 129 92 145 153 42 167 -117 324
-275 272z m111 -110 c62 -26 85 -117 43 -171 -50 -64 -131 -65 -183 -4 -45 55
-25 147 38 174 41 18 60 18 102 1z" />
        <path
            d="M1205 791 c-72 -18 -132 -68 -159 -133 -13 -30 -16 -80 -16 -245 0
-189 -2 -211 -20 -240 -21 -35 -66 -63 -102 -63 -39 0 -89 38 -106 80 -16 38
-19 40 -64 40 -46 0 -48 -1 -48 -27 1 -42 33 -106 71 -137 53 -45 95 -59 165
-54 74 5 130 37 171 100 l28 41 5 227 c6 255 9 269 81 299 38 16 39 17 39 69
0 28 -3 52 -7 51 -5 -1 -21 -4 -38 -8z" />
        <path
            d="M1775 791 c-72 -18 -132 -68 -159 -133 -20 -46 -20 -135 -1 -168 8
-14 14 -28 15 -32 0 -5 -46 -8 -102 -8 -115 0 -162 -15 -210 -66 -108 -116
-58 -318 91 -363 23 -6 114 -11 225 -11 l186 0 0 50 0 50 -175 0 c-185 0 -222
7 -258 47 -27 31 -32 84 -12 126 30 64 47 67 374 67 l291 0 0 50 0 50 -102 0
c-57 0 -121 5 -143 10 -74 17 -113 95 -81 162 44 92 172 89 213 -4 16 -36 19
-38 65 -38 55 0 60 12 32 78 -39 94 -155 156 -249 133z" />
    </g>
</svg>