<svg xmlns="http://www.w3.org/2000/svg" width="53" height="53" viewBox="0 0 53 53" fill="none">
    <circle cx="26.5" cy="26.5" r="26.5" fill="white" />
    <path
        d="M14.4921 17.0667H19.9031L20.4293 15.488C20.7607 14.494 21.6873 13.8262 22.735 13.8262H27.9605C29.0082 13.8262 29.9348 14.494 30.2662 15.488L30.7924 17.0667H32.0988V15.7165C32.0988 14.6742 32.9467 13.8262 33.989 13.8262H35.0692C36.1115 13.8262 36.9595 14.6742 36.9595 15.7165V17.1645C38.2324 17.4998 39.1738 18.6604 39.1738 20.0371V34.0792C39.1738 35.7171 37.8413 37.0497 36.2034 37.0497H14.4921C12.8542 37.0497 11.5217 35.7171 11.5217 34.0792V20.0371C11.5217 18.3992 12.8542 17.0667 14.4921 17.0667ZM35.3392 15.7165C35.3392 15.5676 35.2181 15.4464 35.0692 15.4464H33.989C33.8401 15.4464 33.719 15.5676 33.719 15.7165V17.0667H35.3392V15.7165ZM13.1419 34.0792C13.1419 34.8237 13.7476 35.4294 14.4921 35.4294H36.2034C36.9479 35.4294 37.5536 34.8237 37.5536 34.0792V20.0371C37.5536 19.2926 36.9479 18.6869 36.2034 18.6869H30.2085C29.8598 18.6869 29.5502 18.4638 29.4399 18.1329L28.7291 16.0004C28.6186 15.669 28.3098 15.4464 27.9605 15.4464H22.735C22.3857 15.4464 22.0768 15.669 21.9665 16.0003L21.2556 18.1329C21.1453 18.4638 20.8357 18.6869 20.487 18.6869H14.4921C13.7476 18.6869 13.1419 19.2926 13.1419 20.0371V34.0792Z"
        fill="#292929" />
    <path
        d="M15.6264 21.9269C15.179 21.9269 14.8163 21.5642 14.8163 21.1168C14.8163 20.6693 15.179 20.3066 15.6264 20.3066C16.0738 20.3066 16.4365 20.6693 16.4365 21.1168C16.4365 21.5642 16.0738 21.9269 15.6264 21.9269Z"
        fill="#2D2D2D" />
    <path
        d="M33.4495 20.3066H35.0698C35.5172 20.3066 35.8799 20.6694 35.8799 21.1168C35.8799 21.5642 35.5172 21.9269 35.0698 21.9269H33.4495C33.0021 21.9269 32.6394 21.5642 32.6394 21.1168C32.6394 20.6694 33.0021 20.3066 33.4495 20.3066Z"
        fill="#2D2D2D" />
    <path
        d="M25.3476 33.8088C29.3679 33.8088 32.6387 30.538 32.6387 26.5177C32.6387 22.4973 29.3679 19.2266 25.3476 19.2266C21.3273 19.2266 18.0565 22.4973 18.0565 26.5177C18.0565 30.538 21.3273 33.8088 25.3476 33.8088ZM25.3476 20.8468C28.4745 20.8468 31.0184 23.3908 31.0184 26.5177C31.0184 29.6446 28.4745 32.1885 25.3476 32.1885C22.2207 32.1885 19.6767 29.6446 19.6767 26.5177C19.6767 23.3908 22.2207 20.8468 25.3476 20.8468Z"
        fill="#2D2D2D" />
    <path
        d="M25.3478 30.569C27.5813 30.569 29.3984 28.7519 29.3984 26.5184C29.3984 24.2849 27.5813 22.4678 25.3478 22.4678C23.1143 22.4678 21.2972 24.2849 21.2972 26.5184C21.2972 28.7519 23.1143 30.569 25.3478 30.569ZM25.3478 24.088C26.6879 24.088 27.7782 25.1783 27.7782 26.5184C27.7782 27.8585 26.6879 28.9488 25.3478 28.9488C24.0077 28.9488 22.9175 27.8585 22.9175 26.5184C22.9175 25.1783 24.0077 24.088 25.3478 24.088Z"
        fill="#2D2D2D" />
</svg>