<svg xmlns="http://www.w3.org/2000/svg" width="20" height="20" viewBox="0 0 20 20" fill="none">
    <path
        d="M12.0457 0.241934L7.8977 0.231934H7.8957C3.5217 0.231934 0.0957031 3.65893 0.0957031 8.03393C0.0957031 12.1319 3.2817 15.2399 7.5607 15.4039V19.2319C7.5607 19.3399 7.6047 19.5179 7.6807 19.6349C7.8227 19.8599 8.0647 19.9819 8.3127 19.9819C8.4507 19.9819 8.5897 19.9439 8.7147 19.8639C8.9787 19.6959 15.1877 15.7239 16.8027 14.3579C18.7047 12.7479 19.8427 10.3879 19.8457 8.04593V8.02893C19.8397 3.66193 16.4157 0.241933 12.0457 0.240933V0.241934ZM15.8327 13.2139C14.6987 14.1739 10.9707 16.6189 9.0607 17.8569V14.6699C9.0607 14.2559 8.7257 13.9199 8.3107 13.9199H7.9147C4.2547 13.9199 1.5967 11.4439 1.5967 8.03393C1.5967 4.49993 4.3647 1.73193 7.8967 1.73193L12.0437 1.74193H12.0457C15.5777 1.74193 18.3457 4.50793 18.3477 8.03793C18.3447 9.94793 17.4057 11.8819 15.8337 13.2139H15.8327Z"
        fill="#5B7083" />
</svg>