<svg xmlns="http://www.w3.org/2000/svg" width="21" height="20" viewBox="0 0 21 20" fill="none">
    <mask id="mask0_344_9489" style="mask-type:alpha" maskUnits="userSpaceOnUse" x="0" y="0" width="21" height="20">
      <rect x="0.289062" width="20" height="20" fill="#C4C4C4"/>
    </mask>
    <g mask="url(#mask0_344_9489)">
      <path d="M10.0804 18.7499C5.1404 18.7499 1.12207 14.7316 1.12207 9.79158C1.12207 4.85159 5.1404 0.833252 10.0804 0.833252C15.0204 0.833252 19.0387 4.85159 19.0387 9.79158C19.0387 14.7316 15.0204 18.7499 10.0804 18.7499ZM10.0804 2.08325C5.8304 2.08325 2.37207 5.54159 2.37207 9.79158C2.37207 14.0416 5.8304 17.4999 10.0804 17.4999C14.3304 17.4999 17.7887 14.0416 17.7887 9.79158C17.7887 5.54159 14.3304 2.08325 10.0804 2.08325Z" fill="#7CC9D1"/>
      <path d="M10.0806 14.0541C8.50394 14.0541 7.05311 13.2625 6.20061 11.9341C6.01395 11.6441 6.09811 11.2591 6.38895 11.0716C6.67895 10.8833 7.06561 10.9683 7.25228 11.26C7.87478 12.2283 8.93227 12.8058 10.0814 12.8058C11.2306 12.8058 12.2881 12.2283 12.9114 11.2608C13.0981 10.9691 13.4848 10.8858 13.7748 11.0733C14.0664 11.26 14.1498 11.6466 13.9631 11.9366C13.1089 13.265 11.6581 14.0575 10.0814 14.0575L10.0806 14.0541Z" fill="#7CC9D1"/>
      <path d="M12.3619 8.9049C13.0421 8.9049 13.5935 8.35349 13.5935 7.67324C13.5935 6.99299 13.0421 6.44157 12.3619 6.44157C11.6816 6.44157 11.1302 6.99299 11.1302 7.67324C11.1302 8.35349 11.6816 8.9049 12.3619 8.9049Z" fill="#7CC9D1"/>
      <path d="M7.79889 8.9049C8.47914 8.9049 9.03055 8.35349 9.03055 7.67324C9.03055 6.99299 8.47914 6.44157 7.79889 6.44157C7.11865 6.44157 6.56722 6.99299 6.56722 7.67324C6.56722 8.35349 7.11865 8.9049 7.79889 8.9049Z" fill="#7CC9D1"/>
    </g>
  </svg>