<svg xmlns="http://www.w3.org/2000/svg" width="21" height="20" viewBox="0 0 21 20" fill="none">
    <g clip-path="url(#clip0_907_4356)">
        <path
            d="M-31.2946 15.0001C-31.3779 14.9167 -31.3779 14.9167 -31.3779 14.8334C-31.2946 14.8334 -31.2946 14.9167 -31.2946 15.0001ZM15.2887 1.83341H14.2054V1.58341C14.2054 1.25008 13.9554 0.916748 13.5387 0.916748C13.2054 0.916748 12.8721 1.16675 12.8721 1.58341V1.83341H6.7054V1.58341C6.7054 1.25008 6.4554 0.916748 6.03874 0.916748C5.7054 0.916748 5.37207 1.16675 5.37207 1.58341V1.83341H4.28873C3.12207 1.83341 2.2054 2.75008 2.2054 3.91675V14.8334C2.2054 16.0001 3.12207 16.9167 4.28873 16.9167H6.7054C7.03874 16.9167 7.37207 16.6667 7.37207 16.2501C7.37207 15.9167 7.12207 15.5834 6.7054 15.5834H4.28873C3.78873 15.5834 3.4554 15.1667 3.4554 14.7501V6.58341C3.4554 6.33341 3.78873 6.00008 4.28873 6.00008H15.2887C15.7887 6.00008 16.1221 6.33341 16.1221 6.58341V8.08341C16.1221 8.41675 16.3721 8.75008 16.7887 8.75008C17.1221 8.75008 17.4554 8.50008 17.4554 8.08341V3.91675C17.3721 2.75008 16.4554 1.83341 15.2887 1.83341ZM16.1221 4.91675C15.8721 4.83341 15.5387 4.75008 15.2887 4.75008H4.28873C3.9554 4.75008 3.7054 4.83341 3.4554 4.91675V3.91675C3.4554 3.41675 3.87207 3.08341 4.28873 3.08341H5.37207V3.50008C5.37207 3.83341 5.62207 4.16675 6.03874 4.16675C6.37207 4.16675 6.7054 3.91675 6.7054 3.50008V3.08341H12.9554V3.50008C12.9554 3.83341 13.2054 4.16675 13.6221 4.16675C13.9554 4.16675 14.2887 3.91675 14.2887 3.50008V3.08341H15.2887C15.7887 3.08341 16.1221 3.50008 16.1221 3.91675V4.91675Z"
            fill="#7CC9D1" />
        <path
            d="M13.2057 8.66675C10.3724 8.66675 8.03906 11.0001 8.03906 13.8334C8.03906 16.6667 10.3724 19.0001 13.2057 19.0001C16.0391 19.0001 18.3724 16.6667 18.3724 13.8334C18.3724 11.0001 16.0391 8.66675 13.2057 8.66675ZM13.2057 17.8334C11.0391 17.8334 9.28906 16.0834 9.28906 13.9167C9.28906 11.7501 11.0391 10.0001 13.2057 10.0001C15.3724 10.0001 17.1224 11.7501 17.1224 13.9167C17.1224 16.0001 15.3724 17.8334 13.2057 17.8334Z"
            fill="#7CC9D1" />
        <path
            d="M16.0387 15.5833C15.9554 15.75 15.7054 15.9167 15.5387 15.9167C15.4554 15.9167 15.2887 15.9167 15.2054 15.8333L12.6221 14.1667V11.6667C12.6221 11.3333 12.8721 11 13.2887 11C13.6221 11 13.9554 11.25 13.9554 11.6667V13.5L15.9554 14.75C16.1221 14.9167 16.2054 15.25 16.0387 15.5833Z"
            fill="#7CC9D1" />
    </g>
    <defs>
        <clipPath id="clip0_907_4356">
            <rect width="20" height="20" fill="white" transform="translate(0.289062)" />
        </clipPath>
    </defs>
</svg>