<svg xmlns="http://www.w3.org/2000/svg" width="21" height="20" viewBox="0 0 21 20" fill="none">
    <mask id="mask0_344_9487" style="mask-type:alpha" maskUnits="userSpaceOnUse" x="0" y="0"
        width="21" height="20">
        <rect x="0.289062" width="20" height="20" fill="#C4C4C4" />
    </mask>
    <g mask="url(#mask0_344_9487)">
        <path
            d="M15.9137 8.73344V7.31677H12.247V12.6501H13.6637V10.9834H15.3303V9.56677H13.6637V8.73344H15.9137ZM9.83032 7.31677H11.247V12.6501H9.83032V7.31677ZM6.83032 8.65011C7.16365 8.65011 7.58032 8.81677 7.83032 9.06677L8.83032 8.23344C8.33032 7.65011 7.58032 7.31677 6.83032 7.31677C5.33032 7.31677 4.16366 8.48344 4.16366 9.98344C4.16366 11.4834 5.33032 12.6501 6.83032 12.6501C7.66365 12.6501 8.33032 12.3168 8.83032 11.7334V9.65011H6.49698V10.6501H7.49699V11.1501C7.33032 11.2334 7.08032 11.3168 6.83032 11.3168C6.08032 11.3168 5.49699 10.7334 5.49699 9.98344C5.49699 9.31677 6.08032 8.65011 6.83032 8.65011Z"
            fill="#7CC9D1" />
        <path
            d="M17.1637 1.66675H2.99707C1.96374 1.66675 1.12207 2.50591 1.12207 3.53925V16.4617C1.12207 17.4934 1.96374 18.3334 2.99707 18.3334H17.1637C18.1971 18.3334 19.0387 17.4934 19.0387 16.4617V3.53925C19.0387 2.50591 18.1971 1.66675 17.1637 1.66675ZM17.7887 16.4617C17.7887 16.8034 17.5087 17.0834 17.1637 17.0834H2.99707C2.65207 17.0834 2.37207 16.8034 2.37207 16.4617V3.53925C2.37207 3.19591 2.65207 2.91675 2.99707 2.91675H17.1637C17.5087 2.91675 17.7887 3.19591 17.7887 3.53925V16.4617Z"
            fill="#7CC9D1" />
    </g>
</svg>