<svg xmlns="http://www.w3.org/2000/svg" width="21" height="20" viewBox="0 0 21 20" fill="none">
    <mask id="mask0_344_9486" style="mask-type:alpha" maskUnits="userSpaceOnUse" x="0" y="0"
        width="21" height="20">
        <rect x="0.289062" width="20" height="20" fill="#C4C4C4" />
    </mask>
    <g mask="url(#mask0_344_9486)">
        <path
            d="M16.7477 1.66675H3.83105C2.79772 1.66675 1.95605 2.50841 1.95605 3.54175V16.4584C1.95605 17.4917 2.79772 18.3334 3.83105 18.3334H16.7477C17.7811 18.3334 18.6227 17.4917 18.6227 16.4584V3.54175C18.6227 2.50841 17.7811 1.66675 16.7477 1.66675ZM3.83105 2.91675H16.7477C17.0919 2.91675 17.3727 3.19758 17.3727 3.54175V11.6051L14.1577 8.39008C14.0411 8.27342 13.8827 8.20675 13.7161 8.20675H13.7135C13.5469 8.20675 13.3861 8.27341 13.2702 8.39341L9.67272 12.0468L8.16189 10.5417C8.04523 10.4251 7.88689 10.3584 7.72023 10.3584C7.55939 10.3334 7.39106 10.4251 7.27439 10.5476L3.20605 14.7017V3.54175C3.20605 3.19758 3.48689 2.91675 3.83105 2.91675ZM3.21105 16.4834L7.72605 11.8717L12.9611 17.0834H3.83105C3.49605 17.0834 3.22522 16.8151 3.21105 16.4834ZM16.7477 17.0834H14.7311L10.5586 12.9276L13.7186 9.71925L17.3727 13.3726V16.4584C17.3727 16.8026 17.0919 17.0834 16.7477 17.0834Z"
            fill="#7CC9D1" />
        <path
            d="M7.67952 8.20922C8.38952 8.20922 8.96453 7.63397 8.96453 6.92422C8.96453 6.21455 8.38952 5.63922 7.67952 5.63922C6.96952 5.63922 6.39453 6.21455 6.39453 6.92422C6.39453 7.63397 6.96952 8.20922 7.67952 8.20922Z"
            fill="#7CC9D1" />
    </g>
</svg>