<svg width="20" height="20" viewBox="0 0 20 20" fill="none" xmlns="http://www.w3.org/2000/svg">
<g id="Frame">
<path id="Vector" d="M5.60496 16.7774C6.57639 16.7774 8.17354 16.6881 10.3335 16.2902C9.95996 17.3059 8.98639 18.0338 7.84282 18.0338C6.89211 18.0338 6.05925 17.5302 5.58925 16.7774H5.60496ZM17.8021 11.2359C17.9785 12.1445 17.3414 12.9481 15.9071 13.6259C15.1214 13.9966 13.3743 14.7024 10.4885 15.2638C8.26282 15.6959 6.63211 15.7952 5.60568 15.7952C5.30068 15.7952 5.04853 15.7866 4.84996 15.7752C3.26711 15.6845 2.37425 15.1774 2.19782 14.2688C1.92996 12.8924 2.35353 12.3609 3.05568 11.4809L3.24068 11.2488C3.71425 10.6481 3.89925 10.0581 3.59639 8.50165C2.91853 5.01593 4.48853 2.63379 7.90282 1.96665C11.3185 1.30736 13.6671 2.92593 14.345 6.41236C14.6471 7.96879 15.04 8.44593 15.7043 8.82522V8.82593L15.9628 8.97236C16.9428 9.52522 17.5343 9.85879 17.8021 11.2359Z" fill="#0F1419"/>
</g>
</svg>
