<svg width="20" height="20" viewBox="0 0 20 20" fill="none" xmlns="http://www.w3.org/2000/svg">
<g id="Frame" clip-path="url(#clip0_156_6256)">
<path id="Vector" d="M3.18186 5.90914C4.68809 5.90914 5.90914 4.68809 5.90914 3.18186C5.90914 1.67563 4.68809 0.45459 3.18186 0.45459C1.67563 0.45459 0.45459 1.67563 0.45459 3.18186C0.45459 4.68809 1.67563 5.90914 3.18186 5.90914Z" fill="#0F1419"/>
<path id="Vector_2" d="M9.99998 5.90914C11.5062 5.90914 12.7273 4.68809 12.7273 3.18186C12.7273 1.67563 11.5062 0.45459 9.99998 0.45459C8.49375 0.45459 7.27271 1.67563 7.27271 3.18186C7.27271 4.68809 8.49375 5.90914 9.99998 5.90914Z" fill="#0F1419"/>
<path id="Vector_3" d="M16.8181 5.90914C18.3243 5.90914 19.5454 4.68809 19.5454 3.18186C19.5454 1.67563 18.3243 0.45459 16.8181 0.45459C15.3119 0.45459 14.0908 1.67563 14.0908 3.18186C14.0908 4.68809 15.3119 5.90914 16.8181 5.90914Z" fill="#0F1419"/>
<path id="Vector_4" d="M3.18186 12.7275C4.68809 12.7275 5.90914 11.5065 5.90914 10.0002C5.90914 8.49399 4.68809 7.27295 3.18186 7.27295C1.67563 7.27295 0.45459 8.49399 0.45459 10.0002C0.45459 11.5065 1.67563 12.7275 3.18186 12.7275Z" fill="#0F1419"/>
<path id="Vector_5" d="M9.99998 12.7275C11.5062 12.7275 12.7273 11.5065 12.7273 10.0002C12.7273 8.49399 11.5062 7.27295 9.99998 7.27295C8.49375 7.27295 7.27271 8.49399 7.27271 10.0002C7.27271 11.5065 8.49375 12.7275 9.99998 12.7275Z" fill="#0F1419"/>
<path id="Vector_6" d="M16.8181 12.7275C18.3243 12.7275 19.5454 11.5065 19.5454 10.0002C19.5454 8.49399 18.3243 7.27295 16.8181 7.27295C15.3119 7.27295 14.0908 8.49399 14.0908 10.0002C14.0908 11.5065 15.3119 12.7275 16.8181 12.7275Z" fill="#0F1419"/>
<path id="Vector_7" d="M3.18186 19.5454C4.68809 19.5454 5.90914 18.3243 5.90914 16.8181C5.90914 15.3119 4.68809 14.0908 3.18186 14.0908C1.67563 14.0908 0.45459 15.3119 0.45459 16.8181C0.45459 18.3243 1.67563 19.5454 3.18186 19.5454Z" fill="#0F1419"/>
<path id="Vector_8" d="M9.99998 19.5454C11.5062 19.5454 12.7273 18.3243 12.7273 16.8181C12.7273 15.3119 11.5062 14.0908 9.99998 14.0908C8.49375 14.0908 7.27271 15.3119 7.27271 16.8181C7.27271 18.3243 8.49375 19.5454 9.99998 19.5454Z" fill="#0F1419"/>
<path id="Vector_9" d="M16.8181 19.5454C18.3243 19.5454 19.5454 18.3243 19.5454 16.8181C19.5454 15.3119 18.3243 14.0908 16.8181 14.0908C15.3119 14.0908 14.0908 15.3119 14.0908 16.8181C14.0908 18.3243 15.3119 19.5454 16.8181 19.5454Z" fill="#0F1419"/>
</g>
<defs>
<clipPath id="clip0_156_6256">
<rect width="20" height="20" fill="white"/>
</clipPath>
</defs>
</svg>
