<svg xmlns="http://www.w3.org/2000/svg" width="25" height="25" viewBox="0 0 25 25" fill="none">
    <g clip-path="url(#clip0_1_739)">
      <path d="M25 12.4999C25 15.8151 23.683 18.9945 21.3388 21.3387C18.9946 23.6829 15.8152 24.9999 12.5 24.9999C9.18479 24.9999 6.00537 23.6829 3.66117 21.3387C1.31696 18.9945 0 15.8151 0 12.4999C0 9.18469 1.31696 6.00527 3.66117 3.66107C6.00537 1.31686 9.18479 -9.91821e-05 12.5 -9.91821e-05C15.8152 -9.91821e-05 18.9946 1.31686 21.3388 3.66107C23.683 6.00527 25 9.18469 25 12.4999ZM10.6094 7.95771C10.4926 7.87454 10.3551 7.82512 10.2121 7.81488C10.069 7.80463 9.92593 7.83396 9.79845 7.89963C9.67097 7.96531 9.56403 8.0648 9.48934 8.18722C9.41465 8.30964 9.37509 8.45025 9.375 8.59365V16.4062C9.37509 16.5496 9.41465 16.6902 9.48934 16.8126C9.56403 16.935 9.67097 17.0345 9.79845 17.1002C9.92593 17.1658 10.069 17.1952 10.2121 17.1849C10.3551 17.1747 10.4926 17.1253 10.6094 17.0421L16.0781 13.1358C16.1794 13.0636 16.2619 12.9682 16.3189 12.8575C16.3759 12.7469 16.4056 12.6243 16.4056 12.4999C16.4056 12.3755 16.3759 12.2529 16.3189 12.1423C16.2619 12.0316 16.1794 11.9362 16.0781 11.864L10.6094 7.95771Z" fill="white"/>
    </g>
    <defs>
      <clipPath id="clip0_1_739">
        <rect width="25" height="25" fill="white"/>
      </clipPath>
    </defs>
  </svg>