<svg width="25" height="25" viewBox="0 0 25 25" fill="none" xmlns="http://www.w3.org/2000/svg">
<g id="settings" clip-path="url(#clip0_1_752)">
<g id="Group 6">
<path id="Vector" d="M12.5 15.6251C14.2259 15.6251 15.625 14.226 15.625 12.5001C15.625 10.7742 14.2259 9.37507 12.5 9.37507C10.7741 9.37507 9.375 10.7742 9.375 12.5001C9.375 14.226 10.7741 15.6251 12.5 15.6251Z" stroke="white" stroke-width="2.94388" stroke-linecap="round" stroke-linejoin="round"/>
<path id="Vector_2" d="M20.2087 15.6254C20.07 15.9396 20.0286 16.2881 20.0899 16.626C20.1512 16.9639 20.3123 17.2757 20.5524 17.5212L20.6149 17.5837C20.8086 17.7772 20.9623 18.007 21.0671 18.2599C21.172 18.5128 21.2259 18.7839 21.2259 19.0577C21.2259 19.3314 21.172 19.6025 21.0671 19.8555C20.9623 20.1084 20.8086 20.3381 20.6149 20.5316C20.4214 20.7253 20.1917 20.879 19.9387 20.9838C19.6858 21.0887 19.4147 21.1426 19.1409 21.1426C18.8672 21.1426 18.5961 21.0887 18.3432 20.9838C18.0902 20.879 17.8605 20.7253 17.667 20.5316L17.6045 20.4691C17.359 20.229 17.0472 20.0679 16.7093 20.0066C16.3714 19.9453 16.0228 19.9867 15.7087 20.1254C15.4006 20.2574 15.1378 20.4767 14.9527 20.7561C14.7676 21.0356 14.6683 21.3631 14.667 21.6983V21.8754C14.667 22.4279 14.4475 22.9578 14.0568 23.3485C13.6661 23.7392 13.1362 23.9587 12.5837 23.9587C12.0311 23.9587 11.5012 23.7392 11.1105 23.3485C10.7198 22.9578 10.5003 22.4279 10.5003 21.8754V21.7816C10.4923 21.4368 10.3807 21.1024 10.18 20.8219C9.97939 20.5414 9.69901 20.3277 9.37533 20.2087C9.06114 20.07 8.71262 20.0287 8.37471 20.0899C8.0368 20.1512 7.72499 20.3123 7.47949 20.5525L7.41699 20.615C7.22351 20.8087 6.99374 20.9623 6.74083 21.0672C6.48791 21.172 6.21682 21.226 5.94303 21.226C5.66925 21.226 5.39815 21.172 5.14524 21.0672C4.89233 20.9623 4.66256 20.8087 4.46908 20.615C4.27537 20.4215 4.12171 20.1917 4.01687 19.9388C3.91203 19.6859 3.85806 19.4148 3.85806 19.141C3.85806 18.8672 3.91203 18.5961 4.01687 18.3432C4.12171 18.0903 4.27537 17.8605 4.46908 17.667L4.53158 17.6045C4.77172 17.359 4.93281 17.0472 4.99408 16.7093C5.05535 16.3714 5.01399 16.0229 4.87533 15.7087C4.74328 15.4006 4.52403 15.1379 4.24456 14.9528C3.96509 14.7677 3.6376 14.6684 3.30241 14.667H3.12533C2.57279 14.667 2.04289 14.4475 1.65219 14.0568C1.26149 13.6661 1.04199 13.1362 1.04199 12.5837C1.04199 12.0312 1.26149 11.5013 1.65219 11.1106C2.04289 10.7199 2.57279 10.5004 3.12533 10.5004H3.21908C3.56386 10.4923 3.89825 10.3807 4.17876 10.1801C4.45928 9.97944 4.67295 9.69905 4.79199 9.37537C4.93065 9.06119 4.97202 8.71267 4.91075 8.37476C4.84948 8.03685 4.68838 7.72504 4.44824 7.47954L4.38574 7.41704C4.19204 7.22355 4.03838 6.99378 3.93353 6.74087C3.82869 6.48796 3.77473 6.21686 3.77473 5.94308C3.77473 5.6693 3.82869 5.3982 3.93353 5.14529C4.03838 4.89237 4.19204 4.66261 4.38574 4.46912C4.57923 4.27542 4.809 4.12176 5.06191 4.01691C5.31482 3.91207 5.58592 3.85811 5.8597 3.85811C6.13348 3.85811 6.40458 3.91207 6.65749 4.01691C6.91041 4.12176 7.14017 4.27542 7.33366 4.46912L7.39616 4.53162C7.64166 4.77176 7.95347 4.93286 8.29138 4.99413C8.62929 5.0554 8.97781 5.01403 9.29199 4.87537H9.37533C9.68342 4.74333 9.94618 4.52407 10.1313 4.24461C10.3163 3.96514 10.4157 3.63765 10.417 3.30245V3.12537C10.417 2.57284 10.6365 2.04293 11.0272 1.65223C11.4179 1.26153 11.9478 1.04204 12.5003 1.04204C13.0529 1.04204 13.5828 1.26153 13.9735 1.65223C14.3642 2.04293 14.5837 2.57284 14.5837 3.12537V3.21912C14.585 3.55432 14.6843 3.8818 14.8694 4.16127C15.0545 4.44074 15.3172 4.65999 15.6253 4.79204C15.9395 4.9307 16.288 4.97206 16.6259 4.91079C16.9638 4.84952 17.2757 4.68843 17.5212 4.44829L17.5837 4.38579C17.7771 4.19209 18.0069 4.03842 18.2598 3.93358C18.5127 3.82874 18.7838 3.77477 19.0576 3.77477C19.3314 3.77477 19.6025 3.82874 19.8554 3.93358C20.1083 4.03842 20.3381 4.19209 20.5316 4.38579C20.7253 4.57927 20.8789 4.80904 20.9838 5.06195C21.0886 5.31487 21.1426 5.58596 21.1426 5.85975C21.1426 6.13353 21.0886 6.40463 20.9838 6.65754C20.8789 6.91045 20.7253 7.14022 20.5316 7.3337L20.4691 7.3962C20.2289 7.6417 20.0678 7.95351 20.0066 8.29142C19.9453 8.62934 19.9867 8.97785 20.1253 9.29204V9.37537C20.2574 9.68346 20.4766 9.94622 20.7561 10.1313C21.0356 10.3164 21.363 10.4157 21.6982 10.417H21.8753C22.4279 10.417 22.9578 10.6365 23.3485 11.0272C23.7392 11.4179 23.9587 11.9478 23.9587 12.5004C23.9587 13.0529 23.7392 13.5828 23.3485 13.9735C22.9578 14.3642 22.4279 14.5837 21.8753 14.5837H21.7816C21.4464 14.585 21.1189 14.6844 20.8394 14.8694C20.56 15.0545 20.3407 15.3173 20.2087 15.6254V15.6254Z" stroke="white" stroke-width="2.94388" stroke-linecap="round" stroke-linejoin="round"/>
</g>
</g>
<defs>
<clipPath id="clip0_1_752">
<rect width="25" height="25" fill="white"/>
</clipPath>
</defs>
</svg>
