<svg xmlns="http://www.w3.org/2000/svg" width="21" height="20" viewBox="0 0 21 20" fill="none">
    <mask id="mask0_344_9488" style="mask-type:alpha" maskUnits="userSpaceOnUse" x="0" y="0"
        width="21" height="20">
        <rect x="0.289062" width="20" height="20" fill="#C4C4C4" />
    </mask>
    <g mask="url(#mask0_344_9488)">
        <path
            d="M17.1411 7.96H16.0294C16.0419 7.885 16.0527 7.80833 16.0527 7.72916V5.80166C16.0527 4.985 15.3886 4.32083 14.5711 4.32083H3.20605V3.125C3.20605 2.78 2.92605 2.5 2.58105 2.5C2.23605 2.5 1.95605 2.78 1.95605 3.125V17.685C1.95605 18.0308 2.23605 18.31 2.58105 18.31C2.92605 18.31 3.20605 18.0308 3.20605 17.685V16.49H12.0027C12.8194 16.49 13.4844 15.8258 13.4844 15.0092V13.0817C13.4844 13.0025 13.4727 12.9258 13.4611 12.85H17.1419C17.9586 12.85 18.6236 12.185 18.6236 11.3683V9.44333C18.6236 8.62416 17.9594 7.96 17.1419 7.96H17.1411ZM14.5727 5.57083C14.6994 5.57083 14.8036 5.67417 14.8036 5.80166V7.72667C14.8036 7.855 14.6994 7.96 14.5719 7.96H3.20605V5.56833H14.5727V5.57083ZM12.2336 13.0825V15.0092C12.2336 15.1367 12.1294 15.24 12.0019 15.24H3.20605V12.85H12.0027C12.1302 12.85 12.2336 12.955 12.2336 13.0833V13.0825ZM17.3727 11.3683C17.3727 11.4958 17.2686 11.5992 17.1411 11.5992H3.20605V9.21H17.1411C17.2686 9.21 17.3727 9.31333 17.3727 9.44083V11.3683Z"
            fill="#7CC9D1" />
    </g>
</svg>