<svg width="13" height="14" viewBox="0 0 13 14" fill="none" xmlns="http://www.w3.org/2000/svg">
<path id="Union" fill-rule="evenodd" clip-rule="evenodd" d="M2.25699 4.89694C2.3222 4.11877 2.52744 3.14227 2.97385 2.28827C3.53406 1.21652 4.51126 0.285156 6.07764 0.285156C7.64493 0.285156 8.61667 1.21768 9.16946 2.29095C9.6091 3.14453 9.80692 4.12006 9.86642 4.89786C11.1287 5.25204 12.0542 6.41125 12.0542 7.78662V10.9854C12.0542 12.6422 10.7111 13.9854 9.0542 13.9854H3.06592C1.40906 13.9854 0.065918 12.6422 0.065918 10.9854V7.78662C0.065918 6.41003 0.993073 5.25003 2.25699 4.89694ZM3.27258 4.78662C3.34515 4.14804 3.52335 3.39569 3.86008 2.75153C4.3074 1.89578 4.99664 1.28516 6.07764 1.28516C7.15765 1.28516 7.84048 1.89462 8.28046 2.74884C8.61258 3.39368 8.785 4.14737 8.85236 4.78662H3.27258ZM6.87842 9.38623C6.87842 9.8382 6.51202 10.2046 6.06006 10.2046C5.60809 10.2046 5.2417 9.8382 5.2417 9.38623C5.2417 8.93427 5.60809 8.56787 6.06006 8.56787C6.51202 8.56787 6.87842 8.93427 6.87842 9.38623Z" fill="#0099AB"/>
</svg>
