<svg xmlns="http://www.w3.org/2000/svg" width="28" height="28" viewBox="0 0 28 28" fill="none">
    <path
        d="M8.54196 2H4.61678C3.92277 2 3.25718 2.2757 2.76644 2.76644C2.2757 3.25718 2 3.92277 2 4.61678V8.54196M25.5511 8.54196V4.61678C25.5511 3.92277 25.2754 3.25718 24.7846 2.76644C24.2939 2.2757 23.6283 2 22.9343 2H19.0091M19.0091 25.5511H22.9343C23.6283 25.5511 24.2939 25.2754 24.7846 24.7846C25.2754 24.2939 25.5511 23.6283 25.5511 22.9343V19.0091M2 19.0091V22.9343C2 23.6283 2.2757 24.2939 2.76644 24.7846C3.25718 25.2754 3.92277 25.5511 4.61678 25.5511H8.54196"
        stroke="white" stroke-width="2.94388" stroke-linecap="round" stroke-linejoin="round" />
</svg>