<svg xmlns="http://www.w3.org/2000/svg" width="46" height="47" viewBox="0 0 46 47" fill="#C4C4C4">
    <path
        d="M14.2991 37.5685H10.619C4.984 37.166 2.4541 32.8343 2.4541 28.9818C2.4541 25.1293 4.98403 20.7785 10.5232 20.3951C11.309 20.3185 11.999 20.9318 12.0565 21.7368C12.114 22.5226 11.5199 23.2126 10.7149 23.2701C6.9966 23.5385 5.3291 26.3368 5.3291 29.001C5.3291 31.6651 6.9966 34.4635 10.7149 34.7318H14.2991C15.0849 34.7318 15.7366 35.3835 15.7366 36.1693C15.7366 36.9551 15.0849 37.5685 14.2991 37.5685Z"
        fill="#7CC9D1" />
    <path
        d="M31.9507 37.5687C31.9124 37.5687 31.8932 37.5687 31.8549 37.5687C31.0691 37.5687 30.3408 36.9171 30.3408 36.1312C30.3408 35.3071 30.9541 34.6937 31.7591 34.6937C34.1166 34.6937 36.2249 33.8696 37.8733 32.3937C40.8633 29.7871 41.0549 26.0304 40.2499 23.3854C39.4449 20.7596 37.2024 17.7504 33.2924 17.2712C32.6599 17.1946 32.1615 16.7154 32.0465 16.0829C31.2799 11.4829 28.8074 8.30125 25.0508 7.15125C21.1791 5.94375 16.6557 7.13208 13.8382 10.0837C11.0974 12.9396 10.4649 16.9454 12.0557 21.3538C12.324 22.1013 11.9408 22.9254 11.1933 23.1937C10.4458 23.4621 9.62159 23.0787 9.35326 22.3312C7.41743 16.9262 8.29911 11.7512 11.7683 8.10958C15.3141 4.39125 21.0066 2.9154 25.8941 4.4104C30.3791 5.7904 33.5415 9.48957 34.6915 14.6262C38.6015 15.5079 41.7449 18.4788 42.9907 22.5804C44.3516 27.0463 43.1249 31.6463 39.7707 34.5596C37.6432 36.4762 34.864 37.5687 31.9507 37.5687Z"
        fill="#7CC9D1" />
    <path
        d="M22.9998 43.2038C19.1473 43.2038 15.544 41.1529 13.5699 37.8371C13.359 37.5113 13.1482 37.1279 12.9757 36.7063C12.324 35.3454 11.979 33.7929 11.979 32.1829C11.979 26.1071 16.924 21.1621 22.9998 21.1621C29.0757 21.1621 34.0207 26.1071 34.0207 32.1829C34.0207 33.8121 33.6757 35.3454 32.9857 36.7638C32.8324 37.1279 32.6216 37.5113 32.3916 37.8754C30.4557 41.1529 26.8523 43.2038 22.9998 43.2038ZM22.9998 24.0371C18.5148 24.0371 14.854 27.6979 14.854 32.1829C14.854 33.3713 15.1032 34.4829 15.5823 35.4988C15.7357 35.8246 15.8698 36.0929 16.0231 36.3421C17.4798 38.8146 20.144 40.3288 22.9807 40.3288C25.8173 40.3288 28.4815 38.8146 29.919 36.3804C30.0915 36.0929 30.2449 35.8246 30.3599 35.5563C30.8774 34.5021 31.1265 33.3904 31.1265 32.2021C31.1457 27.6979 27.4848 24.0371 22.9998 24.0371Z"
        fill="#7CC9D1" />
    <path
        d="M21.9074 35.5173C21.5432 35.5173 21.1791 35.3831 20.8916 35.0956L18.994 33.1981C18.4382 32.6423 18.4382 31.7223 18.994 31.1664C19.5499 30.6106 20.4699 30.6106 21.0257 31.1664L21.9458 32.0864L25.0124 29.2498C25.6066 28.7131 26.5074 28.7514 27.044 29.3264C27.5807 29.9014 27.5424 30.8215 26.9674 31.3581L22.8849 35.134C22.5974 35.3831 22.2524 35.5173 21.9074 35.5173Z"
        fill="#7CC9D1" />
</svg>