<svg width="22" height="20" viewBox="0 0 22 20" fill="none" xmlns="http://www.w3.org/2000/svg">
    <path id="Vector"
        d="M11.5525 0.895405L20.7911 8.89723L20.7933 8.89945L20.8053 8.90999C20.9981 9.07931 21.0561 9.34375 20.945 9.58264L20.9446 9.58349C20.8588 9.7689 20.6381 9.9106 20.369 9.9106H18.7138H18.2138V10.4106V18.3392C18.2138 18.8912 17.7664 19.3392 17.2138 19.3392H13.571C13.374 19.3392 13.2138 19.179 13.2138 18.982V13.6935C13.2138 13.2595 12.8621 12.9106 12.431 12.9106H9.56813C9.13698 12.9106 8.78527 13.2595 8.78527 13.6935V18.982C8.78527 19.179 8.62513 19.3392 8.42813 19.3392H4.78527C4.23341 19.3392 3.78527 18.891 3.78527 18.3392V10.4106V9.9106H3.28527H1.63013C1.36107 9.9106 1.14027 9.7689 1.05448 9.58349L1.05409 9.58264C0.943212 9.3442 1.0008 9.08029 1.19272 8.91094C1.19308 8.91062 1.19344 8.91031 1.19379 8.90999L10.4706 0.873954L10.4803 0.865623L10.4894 0.856812C10.6036 0.747299 10.7861 0.666085 10.9905 0.66098C11.2099 0.666018 11.3944 0.745529 11.535 0.879467L11.5435 0.887644L11.5525 0.895405ZM21.0869 8.58273L21.087 8.58271L21.1353 8.53432L21.0869 8.58273Z"
        stroke="#0099AB" fill="#0099AB" />
</svg>