<svg width="20" height="21" viewBox="0 0 20 21" fill="none" xmlns="http://www.w3.org/2000/svg">
<g id="Frame">
<path id="Vector" d="M5.60496 16.8496C6.57639 16.8496 8.17354 16.7603 10.3335 16.3625C9.95996 17.3782 8.98639 18.1061 7.84282 18.1061C6.89211 18.1061 6.05925 17.6025 5.58925 16.8496H5.60496ZM17.8021 11.3082C17.9785 12.2168 17.3414 13.0203 15.9071 13.6982C15.1214 14.0689 13.3743 14.7746 10.4885 15.3361C8.26282 15.7682 6.63211 15.8675 5.60568 15.8675C5.30068 15.8675 5.04853 15.8589 4.84996 15.8475C3.26711 15.7568 2.37425 15.2496 2.19782 14.3411C1.92996 12.9646 2.35353 12.4332 3.05568 11.5532L3.24068 11.3211C3.71425 10.7203 3.89925 10.1303 3.59639 8.57391C2.91853 5.0882 4.48853 2.70606 7.90282 2.03891C11.3185 1.37963 13.6671 2.9982 14.345 6.48463C14.6471 8.04106 15.04 8.5182 15.7043 8.89748V8.8982L15.9628 9.04463C16.9428 9.59748 17.5343 9.93106 17.8021 11.3082Z" fill="#0F1419"/>
</g>
</svg>
