<svg width="20" height="21" viewBox="0 0 20 21" fill="none" xmlns="http://www.w3.org/2000/svg">
<rect width="20" height="21" fill="#F5F5F5"/>
<g id="Feed" clip-path="url(#clip0_0_1)">
<rect width="1440" height="2195" transform="translate(-1182 -33)" fill="white"/>
<g id="Right Buttons Header">
<g id="Group 15">
<circle id="Ellipse 3" cx="10" cy="10.0723" r="20" fill="#979494" fill-opacity="0.1"/>
<g id="Group 11">
<g id="Frame" clip-path="url(#clip1_0_1)">
<path id="Vector" d="M3.18186 5.9814C4.68809 5.9814 5.90914 4.76036 5.90914 3.25413C5.90914 1.7479 4.68809 0.526855 3.18186 0.526855C1.67563 0.526855 0.45459 1.7479 0.45459 3.25413C0.45459 4.76036 1.67563 5.9814 3.18186 5.9814Z" fill="#0F1419"/>
<path id="Vector_2" d="M10.0002 5.9814C11.5065 5.9814 12.7275 4.76036 12.7275 3.25413C12.7275 1.7479 11.5065 0.526855 10.0002 0.526855C8.49399 0.526855 7.27295 1.7479 7.27295 3.25413C7.27295 4.76036 8.49399 5.9814 10.0002 5.9814Z" fill="#0F1419"/>
<path id="Vector_3" d="M16.8181 5.9814C18.3243 5.9814 19.5454 4.76036 19.5454 3.25413C19.5454 1.7479 18.3243 0.526855 16.8181 0.526855C15.3119 0.526855 14.0908 1.7479 14.0908 3.25413C14.0908 4.76036 15.3119 5.9814 16.8181 5.9814Z" fill="#0F1419"/>
<path id="Vector_4" d="M3.18186 12.7998C4.68809 12.7998 5.90914 11.5787 5.90914 10.0725C5.90914 8.56626 4.68809 7.34521 3.18186 7.34521C1.67563 7.34521 0.45459 8.56626 0.45459 10.0725C0.45459 11.5787 1.67563 12.7998 3.18186 12.7998Z" fill="#0F1419"/>
<path id="Vector_5" d="M10.0002 12.7998C11.5065 12.7998 12.7275 11.5787 12.7275 10.0725C12.7275 8.56626 11.5065 7.34521 10.0002 7.34521C8.49399 7.34521 7.27295 8.56626 7.27295 10.0725C7.27295 11.5787 8.49399 12.7998 10.0002 12.7998Z" fill="#0F1419"/>
<path id="Vector_6" d="M16.8181 12.7998C18.3243 12.7998 19.5454 11.5787 19.5454 10.0725C19.5454 8.56626 18.3243 7.34521 16.8181 7.34521C15.3119 7.34521 14.0908 8.56626 14.0908 10.0725C14.0908 11.5787 15.3119 12.7998 16.8181 12.7998Z" fill="#0F1419"/>
<path id="Vector_7" d="M3.18186 19.6176C4.68809 19.6176 5.90914 18.3966 5.90914 16.8904C5.90914 15.3841 4.68809 14.1631 3.18186 14.1631C1.67563 14.1631 0.45459 15.3841 0.45459 16.8904C0.45459 18.3966 1.67563 19.6176 3.18186 19.6176Z" fill="#0F1419"/>
<path id="Vector_8" d="M10.0002 19.6176C11.5065 19.6176 12.7275 18.3966 12.7275 16.8904C12.7275 15.3841 11.5065 14.1631 10.0002 14.1631C8.49399 14.1631 7.27295 15.3841 7.27295 16.8904C7.27295 18.3966 8.49399 19.6176 10.0002 19.6176Z" fill="#0F1419"/>
<path id="Vector_9" d="M16.8181 19.6176C18.3243 19.6176 19.5454 18.3966 19.5454 16.8904C19.5454 15.3841 18.3243 14.1631 16.8181 14.1631C15.3119 14.1631 14.0908 15.3841 14.0908 16.8904C14.0908 18.3966 15.3119 19.6176 16.8181 19.6176Z" fill="#0F1419"/>
</g>
</g>
</g>
</g>
</g>
<defs>
<clipPath id="clip0_0_1">
<rect width="1440" height="2195" fill="white" transform="translate(-1182 -33)"/>
</clipPath>
<clipPath id="clip1_0_1">
<rect width="20" height="20" fill="white" transform="translate(0 0.0722656)"/>
</clipPath>
</defs>
</svg>
