<svg xmlns="http://www.w3.org/2000/svg" width="14" height="14" viewBox="0 0 14 14" fill="none">
    <path fill-rule="evenodd" clip-rule="evenodd"
        d="M7.00059 0.149994C7.47003 0.149994 7.85059 0.530552 7.85059 0.999994L7.85059 13C7.85059 13.4694 7.47003 13.85 7.00059 13.85C6.53114 13.85 6.15059 13.4694 6.15059 13L6.15059 0.999994C6.15059 0.530552 6.53114 0.149994 7.00059 0.149994Z"
        fill="#8E8E93" />
    <path fill-rule="evenodd" clip-rule="evenodd"
        d="M0.150391 6.99999C0.150391 6.53055 0.530949 6.14999 1.00039 6.14999H13.0004C13.4698 6.14999 13.8504 6.53055 13.8504 6.99999C13.8504 7.46944 13.4698 7.84999 13.0004 7.84999H1.00039C0.530949 7.84999 0.150391 7.46944 0.150391 6.99999Z"
        fill="#8E8E93" />
</svg>