<svg xmlns="http://www.w3.org/2000/svg" width="25" height="25" viewBox="0 0 25 25" fill="none">
    <g clip-path="url(#clip0_355_7418)">
        <path
            d="M12.5 15.625C14.2259 15.625 15.625 14.2259 15.625 12.5C15.625 10.7741 14.2259 9.375 12.5 9.375C10.7741 9.375 9.375 10.7741 9.375 12.5C9.375 14.2259 10.7741 15.625 12.5 15.625Z"
            stroke="white" stroke-width="2.94388" stroke-linecap="round" stroke-linejoin="round" />
        <path
            d="M20.2087 15.6253C20.07 15.9395 20.0286 16.288 20.0899 16.6259C20.1512 16.9638 20.3123 17.2757 20.5524 17.5212L20.6149 17.5837C20.8086 17.7771 20.9623 18.0069 21.0671 18.2598C21.172 18.5127 21.2259 18.7838 21.2259 19.0576C21.2259 19.3314 21.172 19.6025 21.0671 19.8554C20.9623 20.1083 20.8086 20.3381 20.6149 20.5316C20.4214 20.7253 20.1917 20.8789 19.9387 20.9838C19.6858 21.0886 19.4147 21.1426 19.1409 21.1426C18.8672 21.1426 18.5961 21.0886 18.3432 20.9838C18.0902 20.8789 17.8605 20.7253 17.667 20.5316L17.6045 20.4691C17.359 20.2289 17.0472 20.0678 16.7093 20.0066C16.3714 19.9453 16.0228 19.9867 15.7087 20.1253C15.4006 20.2574 15.1378 20.4766 14.9527 20.7561C14.7676 21.0356 14.6683 21.363 14.667 21.6982V21.8753C14.667 22.4279 14.4475 22.9578 14.0568 23.3485C13.6661 23.7392 13.1362 23.9587 12.5837 23.9587C12.0311 23.9587 11.5012 23.7392 11.1105 23.3485C10.7198 22.9578 10.5003 22.4279 10.5003 21.8753V21.7816C10.4923 21.4368 10.3807 21.1024 10.18 20.8219C9.97939 20.5414 9.69901 20.3277 9.37533 20.2087C9.06114 20.07 8.71262 20.0286 8.37471 20.0899C8.0368 20.1512 7.72499 20.3123 7.47949 20.5524L7.41699 20.6149C7.22351 20.8086 6.99374 20.9623 6.74083 21.0671C6.48791 21.172 6.21682 21.2259 5.94303 21.2259C5.66925 21.2259 5.39815 21.172 5.14524 21.0671C4.89233 20.9623 4.66256 20.8086 4.46908 20.6149C4.27537 20.4214 4.12171 20.1917 4.01687 19.9387C3.91203 19.6858 3.85806 19.4147 3.85806 19.1409C3.85806 18.8672 3.91203 18.5961 4.01687 18.3432C4.12171 18.0902 4.27537 17.8605 4.46908 17.667L4.53158 17.6045C4.77172 17.359 4.93281 17.0472 4.99408 16.7093C5.05535 16.3714 5.01399 16.0228 4.87533 15.7087C4.74328 15.4006 4.52403 15.1378 4.24456 14.9527C3.96509 14.7676 3.6376 14.6683 3.30241 14.667H3.12533C2.57279 14.667 2.04289 14.4475 1.65219 14.0568C1.26149 13.6661 1.04199 13.1362 1.04199 12.5837C1.04199 12.0311 1.26149 11.5012 1.65219 11.1105C2.04289 10.7198 2.57279 10.5003 3.12533 10.5003H3.21908C3.56386 10.4923 3.89825 10.3807 4.17876 10.18C4.45928 9.97939 4.67295 9.69901 4.79199 9.37533C4.93065 9.06114 4.97202 8.71262 4.91075 8.37471C4.84948 8.0368 4.68838 7.72499 4.44824 7.47949L4.38574 7.41699C4.19204 7.22351 4.03838 6.99374 3.93353 6.74083C3.82869 6.48791 3.77473 6.21682 3.77473 5.94303C3.77473 5.66925 3.82869 5.39815 3.93353 5.14524C4.03838 4.89233 4.19204 4.66256 4.38574 4.46908C4.57923 4.27537 4.809 4.12171 5.06191 4.01687C5.31482 3.91203 5.58592 3.85806 5.8597 3.85806C6.13348 3.85806 6.40458 3.91203 6.65749 4.01687C6.91041 4.12171 7.14017 4.27537 7.33366 4.46908L7.39616 4.53158C7.64166 4.77172 7.95347 4.93281 8.29138 4.99408C8.62929 5.05535 8.97781 5.01399 9.29199 4.87533H9.37533C9.68342 4.74328 9.94618 4.52403 10.1313 4.24456C10.3163 3.96509 10.4157 3.6376 10.417 3.30241V3.12533C10.417 2.57279 10.6365 2.04289 11.0272 1.65219C11.4179 1.26149 11.9478 1.04199 12.5003 1.04199C13.0529 1.04199 13.5828 1.26149 13.9735 1.65219C14.3642 2.04289 14.5837 2.57279 14.5837 3.12533V3.21908C14.585 3.55427 14.6843 3.88176 14.8694 4.16123C15.0545 4.4407 15.3172 4.65995 15.6253 4.79199C15.9395 4.93065 16.288 4.97202 16.6259 4.91075C16.9638 4.84948 17.2757 4.68838 17.5212 4.44824L17.5837 4.38574C17.7771 4.19204 18.0069 4.03838 18.2598 3.93353C18.5127 3.82869 18.7838 3.77473 19.0576 3.77473C19.3314 3.77473 19.6025 3.82869 19.8554 3.93353C20.1083 4.03838 20.3381 4.19204 20.5316 4.38574C20.7253 4.57923 20.8789 4.809 20.9838 5.06191C21.0886 5.31482 21.1426 5.58592 21.1426 5.8597C21.1426 6.13348 21.0886 6.40458 20.9838 6.65749C20.8789 6.91041 20.7253 7.14017 20.5316 7.33366L20.4691 7.39616C20.2289 7.64166 20.0678 7.95347 20.0066 8.29138C19.9453 8.62929 19.9867 8.97781 20.1253 9.29199V9.37533C20.2574 9.68342 20.4766 9.94618 20.7561 10.1313C21.0356 10.3163 21.363 10.4157 21.6982 10.417H21.8753C22.4279 10.417 22.9578 10.6365 23.3485 11.0272C23.7392 11.4179 23.9587 11.9478 23.9587 12.5003C23.9587 13.0529 23.7392 13.5828 23.3485 13.9735C22.9578 14.3642 22.4279 14.5837 21.8753 14.5837H21.7816C21.4464 14.585 21.1189 14.6843 20.8394 14.8694C20.56 15.0545 20.3407 15.3172 20.2087 15.6253V15.6253Z"
            stroke="white" stroke-width="2.94388" stroke-linecap="round" stroke-linejoin="round" />
    </g>
    <defs>
        <clipPath id="clip0_355_7418">
            <rect width="25" height="25" fill="white" />
        </clipPath>
    </defs>
</svg>