<svg xmlns="http://www.w3.org/2000/svg" width="20" height="20" viewBox="0 0 20 20" fill="none">
    <path
        d="M15.5295 5.47024L10.5295 0.470238C10.2365 0.177238 9.76152 0.177238 9.46952 0.470238L4.46952 5.47024C4.17552 5.76324 4.17552 6.23824 4.46952 6.53024C4.76352 6.82224 5.23652 6.82424 5.52952 6.53024L9.24952 2.81024V13.0002C9.24952 13.4142 9.58552 13.7502 9.99952 13.7502C10.4135 13.7502 10.7495 13.4142 10.7495 13.0002V2.81024L14.4695 6.53024C14.6155 6.67724 14.8075 6.75024 14.9995 6.75024C15.1915 6.75024 15.3835 6.67824 15.5295 6.53024C15.8225 6.23724 15.8225 5.76324 15.5295 5.47024Z"
        fill="#5B7083" />
    <path
        d="M17.708 19.944H2.292C1.028 19.944 0 18.916 0 17.652V12C0 11.586 0.336 11.25 0.75 11.25C1.164 11.25 1.5 11.586 1.5 12V17.652C1.5 18.089 1.855 18.444 2.292 18.444H17.708C18.145 18.444 18.5 18.089 18.5 17.652V12C18.5 11.586 18.836 11.25 19.25 11.25C19.664 11.25 20 11.586 20 12V17.652C20 18.916 18.972 19.944 17.708 19.944Z"
        fill="#5B7083" />
</svg>