<svg
    xmlns="http://www.w3.org/2000/svg"
    width="25"
    height="25"
    viewBox="0 0 25 25"
    fill="none"
>
    <path
        fill-rule="evenodd"
        clip-rule="evenodd"
        d="M8.3559 2.49527C9.14238 1.01155 10.7023 0 12.5 0C14.2977 0 15.8576 1.01155 16.6441 2.49527C18.2494 2.00224 20.0677 2.39 21.3388 3.66116C22.61 4.93232 22.9978 6.75063 22.5047 8.3559C23.9885 9.14238 25 10.7023 25 12.5C25 14.2977 23.9885 15.8576 22.5047 16.6441C22.9978 18.2494 22.61 20.0677 21.3388 21.3388C20.0677 22.61 18.2494 22.9978 16.6441 22.5047C15.8576 23.9885 14.2977 25 12.5 25C10.7023 25 9.14237 23.9885 8.3559 22.5047C6.75064 22.9978 4.93232 22.61 3.66116 21.3388C2.39001 20.0677 2.00225 18.2494 2.49527 16.6441C1.01155 15.8576 0 14.2977 0 12.5C0 10.7023 1.01155 9.14238 2.49527 8.3559C2.00224 6.75063 2.39001 4.93233 3.66116 3.66116C4.93232 2.39 6.75064 2.00224 8.3559 2.49527ZM18.4531 9.36322C18.5446 9.45475 18.5446 9.60315 18.4531 9.69468L11.0506 17.0972C10.959 17.1887 10.8106 17.1887 10.7191 17.0972L6.63115 13.0092C6.53962 12.9177 6.53962 12.7693 6.63115 12.6778L7.95697 11.352C8.0485 11.2604 8.1969 11.2604 8.28843 11.352L10.7191 13.7826C10.8106 13.8742 10.959 13.8742 11.0506 13.7826L16.7958 8.0374C16.8873 7.94587 17.0357 7.94587 17.1273 8.0374L18.4531 9.36322Z"
        fill="white"
    />
</svg>