<svg
    xmlns="http://www.w3.org/2000/svg"
    width="25"
    height="25"
    viewBox="0 0 25 25"
    fill="none"
>
    <path
        d="M19.6875 7.88714H18.5275L18.4475 7.93128H18.4276L16.6075 9.51881V7.95325C16.6075 7.77777 16.5443 7.60951 16.4318 7.48554C16.3193 7.36142 16.1667 7.29175 16.0075 7.29175H4.76751C4.60833 7.29175 4.45571 7.36142 4.34326 7.48554C4.23068 7.6095 4.16748 7.77776 4.16748 7.95325V17.3902C4.16748 17.5657 4.23068 17.734 4.34326 17.858C4.45571 17.9821 4.60833 18.0517 4.76751 18.0517H16.0075C16.1667 18.0517 16.3193 17.9821 16.4318 17.858C16.5443 17.734 16.6075 17.5657 16.6075 17.3902V15.3617L18.4276 16.9493L18.5075 16.9934H19.6675C19.8267 16.9934 19.9792 16.9236 20.0918 16.7996C20.2044 16.6755 20.2676 16.5072 20.2676 16.3319V8.54859C20.2676 8.37679 20.2071 8.21191 20.0989 8.08839C19.9906 7.96504 19.8432 7.89275 19.6875 7.88706L19.6875 7.88714Z"
        fill="#B0B3B8"
    />
    <path d="M11 10V16" stroke="white" />
    <path d="M8 13L14 13" stroke="white" />
</svg>