<svg xmlns="http://www.w3.org/2000/svg" width="24" height="24" viewBox="0 0 24 24" fill="none">
    <path
        d="M7.49972 21.6429C7.14486 21.6429 6.85686 21.3549 6.85686 21C6.85686 20.6452 7.14486 20.3572 7.49972 20.3572H16.4997C16.8546 20.3572 17.1426 20.6452 17.1426 21C17.1426 21.3549 16.8546 21.6429 16.4997 21.6429H7.49972ZM14.7109 11.0109L10.3326 13.6483C9.93486 13.8875 9.42829 13.602 9.42829 13.1375V7.86175C9.42829 7.39804 9.93486 7.11175 10.3326 7.35089L14.7109 9.98918C15.0957 10.2206 15.0957 10.7786 14.7109 11.0109ZM18.6426 17.3572C19.7071 17.3572 20.5711 16.4932 20.5711 15.4286V5.57146C20.5711 4.50689 19.7071 3.64289 18.6426 3.64289H5.35686C4.29229 3.64289 3.42829 4.50689 3.42829 5.57146V15.4286C3.42829 16.4932 4.29229 17.3572 5.35686 17.3572H18.6426ZM18.6426 18.6429H5.35686C3.58172 18.6429 2.14258 17.2037 2.14258 15.4286V5.57146C2.14258 3.79632 3.58172 2.35718 5.35686 2.35718H18.6426C20.4177 2.35718 21.8569 3.79632 21.8569 5.57146V15.4286C21.8569 17.2037 20.4177 18.6429 18.6426 18.6429Z"
        fill="black" />
</svg>